<svg xmlns="http://www.w3.org/2000/svg" viewBox="0 15.399999618530273 504.25 38" data-asc="1.058" width="504.25" height="38"><defs/><g><g fill="#ffffff"><g transform="translate(0, 0)"><path d="M0 17.90L26 17.90L26.50 27.80L25.60 27.80Q23.50 22.75 21.20 20.88Q18.90 19.00 14.45 19.00L12.70 19.00L12.70 34.45L14.40 34.45Q16.75 34.45 18.35 32.68Q19.95 30.90 20.60 27.90L21.35 27.90L21.35 42.70L20.50 42.70Q19.60 38.95 18.07 37.35Q16.55 35.75 13.90 35.75L12.70 35.75L12.70 51.80L14.60 51.80Q19.20 51.80 22.43 49.05Q25.65 46.30 26.85 42.00L27.85 42.00L27.45 52.90L0 52.90L0 51.80L2.95 51.80L2.95 19.00L0 19.00L0 17.90ZM30.45 15.40L42.70 15.40L42.70 52.00L45.50 52.00L45.50 52.90L30.65 52.90L30.65 52.00L33.40 52.00L33.40 16.30L30.45 16.30L30.45 15.40ZM62.80 52.90L62.80 52.00L65.10 52.00L59.45 40.40L58.50 40.65L58.50 52.00L60.80 52.00L60.80 52.90L46.45 52.90L46.45 52.00L49.20 52.00L49.20 16.30L46.25 16.30L46.25 15.40L58.50 15.40L58.50 39.65L59.30 39.35L70.55 30.00L65.85 30.00L65.85 29.10L75.70 29.10L75.70 30.00L72.20 30.00L66.25 35.05L74.90 52.00L76.70 52.00L76.70 52.90L62.80 52.90ZM88.45 41.15L89.90 41.15L89.90 37.30Q89.90 32.55 89.38 30.93Q88.85 29.30 87.35 29.30Q86.45 29.30 85.73 29.78Q85 30.25 85 31.08Q85 31.90 85.30 32.75L86.55 32.75Q86.95 33.80 86.95 35.28Q86.95 36.75 85.70 37.83Q84.45 38.90 82.55 38.90Q78.25 38.90 78.25 34.75Q78.25 28.60 88.70 28.60Q94.65 28.60 96.93 30.63Q99.20 32.65 99.20 38.05L99.20 48.20Q99.20 50.80 100.65 50.80Q102.35 50.80 102.65 45.65L103.40 45.70Q103.20 50.10 101.75 51.75Q100.30 53.40 97 53.40Q91 53.40 90.10 49.70Q89.45 51.60 88.15 52.50Q86.85 53.40 84.35 53.40Q76.95 53.40 76.95 47.35Q76.95 43.80 79.78 42.48Q82.60 41.15 88.45 41.15M86.45 47.30Q86.45 49.90 86.73 50.65Q87 51.40 87.78 51.40Q88.55 51.40 89.23 50.13Q89.90 48.85 89.90 46.60L89.90 41.95L89.55 41.95Q86.45 41.95 86.45 46.50L86.45 47.30ZM105.05 53.40L105.05 44.45L105.65 44.45Q106.95 48.80 109.15 50.55Q111.35 52.30 114.65 52.30Q119.75 52.30 119.75 49.05Q119.75 47.65 118.50 46.95Q116.55 45.85 113.50 45.25Q110.10 44.35 107.80 42.85Q105.05 41.05 105.05 37.15Q105.05 33.25 107.45 30.93Q109.85 28.60 113.85 28.60Q116.30 28.60 118.90 29.75Q119.85 30.15 120.35 30.15Q120.85 30.15 121.20 29.80Q121.55 29.45 122.05 28.50L122.60 28.50L122.60 36.15L122 36.15Q119.45 29.65 114.10 29.65Q111.75 29.65 110.60 30.48Q109.45 31.30 109.45 32.55Q109.45 33.30 109.80 33.73Q110.15 34.15 110.35 34.35Q110.55 34.55 111 34.78Q111.45 35 111.75 35.13Q112.05 35.25 112.68 35.45Q113.30 35.65 113.60 35.70Q117 36.55 118.50 37.18Q120 37.80 121.35 38.70Q124.10 40.60 124.10 44.83Q124.10 49.05 121.60 51.23Q119.10 53.40 114.75 53.40Q111.65 53.40 108.75 51.95Q108.15 51.55 107.80 51.55Q106.70 51.55 105.65 53.40L105.05 53.40ZM125.25 29.10L137.30 29.10L137.30 33.70Q138.95 28.60 144.58 28.60Q150.20 28.60 151.40 34Q153.15 28.60 158.75 28.60Q166.10 28.60 166.10 36.95L166.10 52.00L168.90 52.00L168.90 52.90L155.05 52.90L155.05 52.00L156.80 52.00L156.80 35.75Q156.80 31.95 156.15 31.30Q155.85 31.00 155.35 31.00Q153.90 31.00 152.80 32.95Q151.70 34.90 151.70 37.90L151.70 52.00L153.50 52.00L153.50 52.90L140.65 52.90L140.65 52.00L142.40 52.00L142.40 35.75Q142.40 31.95 141.75 31.30Q141.45 31.00 140.95 31.00Q139.55 31.00 138.43 33.13Q137.30 35.25 137.30 38.20L137.30 52.00L139.10 52.00L139.10 52.90L125.25 52.90L125.25 52.00L128 52.00L128 30.00L125.25 30.00L125.25 29.10ZM177.00 25.65Q177.00 25.65 175.68 25.65Q174.35 25.65 173.23 24.30Q172.10 22.95 172.10 20.95Q172.10 18.95 173.33 17.65Q174.55 16.35 177.05 16.35Q179.55 16.35 180.85 17.53Q182.15 18.70 182.15 20.88Q182.15 23.05 180.90 24.35Q179.65 25.65 177.00 25.65M169.45 29.10L181.70 29.10L181.70 52.00L184.50 52.00L184.50 52.90L169.65 52.90L169.65 52.00L172.40 52.00L172.40 30.00L169.45 30.00L169.45 29.10ZM195.05 17.90L221.05 17.90L221.55 28.30L220.65 28.30Q218.80 22.90 216.38 20.95Q213.95 19.00 209.15 19.00L207.75 19.00L207.75 35.25L210.00 35.25Q212.40 35.25 214.00 33.50Q215.60 31.75 216.20 28.70L216.95 28.70L216.95 43.50L216.10 43.50Q215.30 39.75 213.88 38.15Q212.45 36.55 210.00 36.55L207.75 36.55L207.75 51.80L213.95 51.80L213.95 52.90L195.05 52.90L195.05 51.80L198.00 51.80L198.00 19.00L195.05 19.00L195.05 17.90ZM233.35 41.15L234.80 41.15L234.80 37.30Q234.80 32.55 234.28 30.93Q233.75 29.30 232.25 29.30Q231.35 29.30 230.63 29.78Q229.90 30.25 229.90 31.08Q229.90 31.90 230.20 32.75L231.45 32.75Q231.85 33.80 231.85 35.28Q231.85 36.75 230.60 37.83Q229.35 38.90 227.45 38.90Q223.15 38.90 223.15 34.75Q223.15 28.60 233.60 28.60Q239.55 28.60 241.83 30.63Q244.10 32.65 244.10 38.05L244.10 48.20Q244.10 50.80 245.55 50.80Q247.25 50.80 247.55 45.65L248.30 45.70Q248.10 50.10 246.65 51.75Q245.20 53.40 241.90 53.40Q235.90 53.40 235.00 49.70Q234.35 51.60 233.05 52.50Q231.75 53.40 229.25 53.40Q221.85 53.40 221.85 47.35Q221.85 43.80 224.68 42.48Q227.50 41.15 233.35 41.15M231.35 47.30Q231.35 49.90 231.63 50.65Q231.90 51.40 232.68 51.40Q233.45 51.40 234.13 50.13Q234.80 48.85 234.80 46.60L234.80 41.95L234.45 41.95Q231.35 41.95 231.35 46.50L231.35 47.30ZM250.55 45.75L250.55 30.00L247.80 30.00L247.80 29.10L250.55 29.10L250.55 22.65L259.85 20.35L259.85 29.10L266.35 29.10L266.35 30.00L259.85 30.00L259.85 46.85Q259.85 49.20 260.32 50.30Q260.80 51.40 262.30 51.40Q263.80 51.40 264.93 49.90Q266.05 48.40 266.40 45.80L267.25 45.90Q266.85 49.35 265.05 51.38Q263.25 53.40 259.10 53.40Q254.95 53.40 252.75 51.75Q250.55 50.10 250.55 45.75ZM275.10 25.65Q275.10 25.65 273.77 25.65Q272.45 25.65 271.32 24.30Q270.20 22.95 270.20 20.95Q270.20 18.95 271.43 17.65Q272.65 16.35 275.15 16.35Q277.65 16.35 278.95 17.53Q280.25 18.70 280.25 20.88Q280.25 23.05 279 24.35Q277.75 25.65 275.10 25.65M267.55 29.10L279.80 29.10L279.80 52.00L282.60 52.00L282.60 52.90L267.75 52.90L267.75 52.00L270.50 52.00L270.50 30.00L267.55 30.00L267.55 29.10ZM283.60 29.10L295.65 29.10L295.65 33.70Q297.30 28.60 302.93 28.60Q308.55 28.60 309.75 34Q311.50 28.60 317.10 28.60Q324.45 28.60 324.45 36.95L324.45 52.00L327.25 52.00L327.25 52.90L313.40 52.90L313.40 52.00L315.15 52.00L315.15 35.75Q315.15 31.95 314.50 31.30Q314.20 31.00 313.70 31.00Q312.25 31.00 311.15 32.95Q310.05 34.90 310.05 37.90L310.05 52.00L311.85 52.00L311.85 52.90L299 52.90L299 52.00L300.75 52.00L300.75 35.75Q300.75 31.95 300.10 31.30Q299.80 31.00 299.30 31.00Q297.90 31.00 296.78 33.13Q295.65 35.25 295.65 38.20L295.65 52.00L297.45 52.00L297.45 52.90L283.60 52.90L283.60 52.00L286.35 52.00L286.35 30.00L283.60 30.00L283.60 29.10ZM340 41.15L341.45 41.15L341.45 37.30Q341.45 32.55 340.93 30.93Q340.40 29.30 338.90 29.30Q338 29.30 337.27 29.78Q336.55 30.25 336.55 31.08Q336.55 31.90 336.85 32.75L338.10 32.75Q338.50 33.80 338.50 35.28Q338.50 36.75 337.25 37.83Q336 38.90 334.10 38.90Q329.80 38.90 329.80 34.75Q329.80 28.60 340.25 28.60Q346.20 28.60 348.48 30.63Q350.75 32.65 350.75 38.05L350.75 48.20Q350.75 50.80 352.20 50.80Q353.90 50.80 354.20 45.65L354.95 45.70Q354.75 50.10 353.30 51.75Q351.85 53.40 348.55 53.40Q342.55 53.40 341.65 49.70Q341 51.60 339.70 52.50Q338.40 53.40 335.90 53.40Q328.50 53.40 328.50 47.35Q328.50 43.80 331.32 42.48Q334.15 41.15 340 41.15M338 47.30Q338 49.90 338.27 50.65Q338.55 51.40 339.32 51.40Q340.10 51.40 340.77 50.13Q341.45 48.85 341.45 46.60L341.45 41.95L341.10 41.95Q338 41.95 338 46.50L338 47.30ZM391.90 17.90L391.90 19.00L377.10 51.75L378.80 51.75Q383.30 51.75 386.72 48.88Q390.15 46.00 391.65 40.70L392.55 40.70L391.95 52.90L366.35 52.90L366.35 51.95L381.30 19.00L379.25 19.00Q374.80 19.00 372.50 20.95Q370.20 22.90 367.30 28.95L366.40 28.95L367.15 17.90L391.90 17.90ZM407.05 41.15L408.50 41.15L408.50 37.30Q408.50 32.55 407.98 30.93Q407.45 29.30 405.95 29.30Q405.05 29.30 404.32 29.78Q403.60 30.25 403.60 31.08Q403.60 31.90 403.90 32.75L405.15 32.75Q405.55 33.80 405.55 35.28Q405.55 36.75 404.30 37.83Q403.05 38.90 401.15 38.90Q396.85 38.90 396.85 34.75Q396.85 28.60 407.30 28.60Q413.25 28.60 415.53 30.63Q417.80 32.65 417.80 38.05L417.80 48.20Q417.80 50.80 419.25 50.80Q420.95 50.80 421.25 45.65L422 45.70Q421.80 50.10 420.35 51.75Q418.90 53.40 415.60 53.40Q409.60 53.40 408.70 49.70Q408.05 51.60 406.75 52.50Q405.45 53.40 402.95 53.40Q395.55 53.40 395.55 47.35Q395.55 43.80 398.38 42.48Q401.20 41.15 407.05 41.15M405.05 47.30Q405.05 49.90 405.32 50.65Q405.60 51.40 406.38 51.40Q407.15 51.40 407.82 50.13Q408.50 48.85 408.50 46.60L408.50 41.95L408.15 41.95Q405.05 41.95 405.05 46.50L405.05 47.30ZM422.50 15.40L434.55 15.40L434.55 33.70Q435.35 31.40 437 30.00Q438.65 28.60 442 28.60Q449.75 28.60 449.75 36.95L449.75 52.00L452.55 52.00L452.55 52.90L438.40 52.90L438.40 52.00L440.45 52.00L440.45 35.75Q440.45 32.75 440.05 31.88Q439.65 31.00 438.60 31.00Q437 31.00 435.77 33.10Q434.55 35.20 434.55 38.20L434.55 52.00L436.70 52.00L436.70 52.90L422.50 52.90L422.50 52.00L425.25 52.00L425.25 16.30L422.50 16.30L422.50 15.40ZM470 30.50Q468.15 30.50 466.75 32.90Q465.35 35.30 465.35 38.60L465.35 52.00L468.90 52.00L468.90 52.90L453.30 52.90L453.30 52.00L456.05 52.00L456.05 30.00L453.30 30.00L453.30 29.10L465.35 29.10L465.35 33.90Q466 31.35 467.85 29.98Q469.70 28.60 472.05 28.60Q474.40 28.60 475.88 29.93Q477.35 31.25 477.35 33.68Q477.35 36.10 476.25 37.40Q475.15 38.70 472.88 38.70Q470.60 38.70 469.53 37.20Q468.45 35.70 469.25 33.05L471.05 33.05Q472.30 30.50 470 30.50ZM489.30 41.15L490.75 41.15L490.75 37.30Q490.75 32.55 490.23 30.93Q489.70 29.30 488.20 29.30Q487.30 29.30 486.57 29.78Q485.85 30.25 485.85 31.08Q485.85 31.90 486.15 32.75L487.40 32.75Q487.80 33.80 487.80 35.28Q487.80 36.75 486.55 37.83Q485.30 38.90 483.40 38.90Q479.10 38.90 479.10 34.75Q479.10 28.60 489.55 28.60Q495.50 28.60 497.78 30.63Q500.05 32.65 500.05 38.05L500.05 48.20Q500.05 50.80 501.50 50.80Q503.20 50.80 503.50 45.65L504.25 45.70Q504.05 50.10 502.60 51.75Q501.15 53.40 497.85 53.40Q491.85 53.40 490.95 49.70Q490.30 51.60 489 52.50Q487.70 53.40 485.20 53.40Q477.80 53.40 477.80 47.35Q477.80 43.80 480.63 42.48Q483.45 41.15 489.30 41.15M487.30 47.30Q487.30 49.90 487.57 50.65Q487.85 51.40 488.63 51.40Q489.40 51.40 490.07 50.13Q490.75 48.85 490.75 46.60L490.75 41.95L490.40 41.95Q487.30 41.95 487.30 46.50L487.30 47.30Z"/></g><g transform="translate(0, 64.55)"><path d=""/></g></g></g></svg>