<svg xmlns="http://www.w3.org/2000/svg" viewBox="0 15.399999618530273 309.20001220703125 102.55000305175781" data-asc="1.058" width="309.20001220703125" height="102.55000305175781"><defs/><g><g fill="#ffffff"><g transform="translate(0, 0)"><path d="M0 17.90L26 17.90L26.50 27.80L25.60 27.80Q23.50 22.75 21.20 20.88Q18.90 19.00 14.45 19.00L12.70 19.00L12.70 34.45L14.40 34.45Q16.75 34.45 18.35 32.68Q19.95 30.90 20.60 27.90L21.35 27.90L21.35 42.70L20.50 42.70Q19.60 38.95 18.07 37.35Q16.55 35.75 13.90 35.75L12.70 35.75L12.70 51.80L14.60 51.80Q19.20 51.80 22.43 49.05Q25.65 46.30 26.85 42.00L27.85 42.00L27.45 52.90L0 52.90L0 51.80L2.95 51.80L2.95 19.00L0 19.00L0 17.90ZM30.45 15.40L42.70 15.40L42.70 52.00L45.50 52.00L45.50 52.90L30.65 52.90L30.65 52.00L33.40 52.00L33.40 16.30L30.45 16.30L30.45 15.40ZM62.80 52.90L62.80 52.00L65.10 52.00L59.45 40.40L58.50 40.65L58.50 52.00L60.80 52.00L60.80 52.90L46.45 52.90L46.45 52.00L49.20 52.00L49.20 16.30L46.25 16.30L46.25 15.40L58.50 15.40L58.50 39.65L59.30 39.35L70.55 30.00L65.85 30.00L65.85 29.10L75.70 29.10L75.70 30.00L72.20 30.00L66.25 35.05L74.90 52.00L76.70 52.00L76.70 52.90L62.80 52.90ZM88.45 41.15L89.90 41.15L89.90 37.30Q89.90 32.55 89.38 30.93Q88.85 29.30 87.35 29.30Q86.45 29.30 85.73 29.78Q85 30.25 85 31.08Q85 31.90 85.30 32.75L86.55 32.75Q86.95 33.80 86.95 35.28Q86.95 36.75 85.70 37.83Q84.45 38.90 82.55 38.90Q78.25 38.90 78.25 34.75Q78.25 28.60 88.70 28.60Q94.65 28.60 96.93 30.63Q99.20 32.65 99.20 38.05L99.20 48.20Q99.20 50.80 100.65 50.80Q102.35 50.80 102.65 45.65L103.40 45.70Q103.20 50.10 101.75 51.75Q100.30 53.40 97 53.40Q91 53.40 90.10 49.70Q89.45 51.60 88.15 52.50Q86.85 53.40 84.35 53.40Q76.95 53.40 76.95 47.35Q76.95 43.80 79.78 42.48Q82.60 41.15 88.45 41.15M86.45 47.30Q86.45 49.90 86.73 50.65Q87 51.40 87.78 51.40Q88.55 51.40 89.23 50.13Q89.90 48.85 89.90 46.60L89.90 41.95L89.55 41.95Q86.45 41.95 86.45 46.50L86.45 47.30ZM105.05 53.40L105.05 44.45L105.65 44.45Q106.95 48.80 109.15 50.55Q111.35 52.30 114.65 52.30Q119.75 52.30 119.75 49.05Q119.75 47.65 118.50 46.95Q116.55 45.85 113.50 45.25Q110.10 44.35 107.80 42.85Q105.05 41.05 105.05 37.15Q105.05 33.25 107.45 30.93Q109.85 28.60 113.85 28.60Q116.30 28.60 118.90 29.75Q119.85 30.15 120.35 30.15Q120.85 30.15 121.20 29.80Q121.55 29.45 122.05 28.50L122.60 28.50L122.60 36.15L122 36.15Q119.45 29.65 114.10 29.65Q111.75 29.65 110.60 30.48Q109.45 31.30 109.45 32.55Q109.45 33.30 109.80 33.73Q110.15 34.15 110.35 34.35Q110.55 34.55 111 34.78Q111.45 35 111.75 35.13Q112.05 35.25 112.68 35.45Q113.30 35.65 113.60 35.70Q117 36.55 118.50 37.18Q120 37.80 121.35 38.70Q124.10 40.60 124.10 44.83Q124.10 49.05 121.60 51.23Q119.10 53.40 114.75 53.40Q111.65 53.40 108.75 51.95Q108.15 51.55 107.80 51.55Q106.70 51.55 105.65 53.40L105.05 53.40ZM125.25 29.10L137.30 29.10L137.30 33.70Q138.95 28.60 144.58 28.60Q150.20 28.60 151.40 34Q153.15 28.60 158.75 28.60Q166.10 28.60 166.10 36.95L166.10 52.00L168.90 52.00L168.90 52.90L155.05 52.90L155.05 52.00L156.80 52.00L156.80 35.75Q156.80 31.95 156.15 31.30Q155.85 31.00 155.35 31.00Q153.90 31.00 152.80 32.95Q151.70 34.90 151.70 37.90L151.70 52.00L153.50 52.00L153.50 52.90L140.65 52.90L140.65 52.00L142.40 52.00L142.40 35.75Q142.40 31.95 141.75 31.30Q141.45 31.00 140.95 31.00Q139.55 31.00 138.43 33.13Q137.30 35.25 137.30 38.20L137.30 52.00L139.10 52.00L139.10 52.90L125.25 52.90L125.25 52.00L128 52.00L128 30.00L125.25 30.00L125.25 29.10ZM177.00 25.65Q177.00 25.65 175.68 25.65Q174.35 25.65 173.23 24.30Q172.10 22.95 172.10 20.95Q172.10 18.95 173.33 17.65Q174.55 16.35 177.05 16.35Q179.55 16.35 180.85 17.53Q182.15 18.70 182.15 20.88Q182.15 23.05 180.90 24.35Q179.65 25.65 177.00 25.65M169.45 29.10L181.70 29.10L181.70 52.00L184.50 52.00L184.50 52.90L169.65 52.90L169.65 52.00L172.40 52.00L172.40 30.00L169.45 30.00L169.45 29.10Z"/></g><g transform="translate(0, 64.55)"><path d="M0 17.90L26 17.90L26.50 28.30L25.60 28.30Q23.75 22.90 21.32 20.95Q18.90 19.00 14.10 19.00L12.70 19.00L12.70 35.25L14.95 35.25Q17.35 35.25 18.95 33.50Q20.55 31.75 21.15 28.70L21.90 28.70L21.90 43.50L21.05 43.50Q20.25 39.75 18.82 38.15Q17.40 36.55 14.95 36.55L12.70 36.55L12.70 51.80L18.90 51.80L18.90 52.90L0 52.90L0 51.80L2.95 51.80L2.95 19.00L0 19.00L0 17.90ZM38.30 41.15L39.75 41.15L39.75 37.30Q39.75 32.55 39.23 30.93Q38.70 29.30 37.20 29.30Q36.30 29.30 35.58 29.78Q34.85 30.25 34.85 31.08Q34.85 31.90 35.15 32.75L36.40 32.75Q36.80 33.80 36.80 35.28Q36.80 36.75 35.55 37.83Q34.30 38.90 32.40 38.90Q28.10 38.90 28.10 34.75Q28.10 28.60 38.55 28.60Q44.50 28.60 46.78 30.63Q49.05 32.65 49.05 38.05L49.05 48.20Q49.05 50.80 50.50 50.80Q52.20 50.80 52.50 45.65L53.25 45.70Q53.05 50.10 51.60 51.75Q50.15 53.40 46.85 53.40Q40.85 53.40 39.95 49.70Q39.30 51.60 38 52.50Q36.70 53.40 34.20 53.40Q26.80 53.40 26.80 47.35Q26.80 43.80 29.63 42.48Q32.45 41.15 38.30 41.15M36.30 47.30Q36.30 49.90 36.58 50.65Q36.85 51.40 37.63 51.40Q38.40 51.40 39.08 50.13Q39.75 48.85 39.75 46.60L39.75 41.95L39.40 41.95Q36.30 41.95 36.30 46.50L36.30 47.30ZM55.50 45.75L55.50 30.00L52.75 30.00L52.75 29.10L55.50 29.10L55.50 22.65L64.80 20.35L64.80 29.10L71.30 29.10L71.30 30.00L64.80 30.00L64.80 46.85Q64.80 49.20 65.28 50.30Q65.75 51.40 67.25 51.40Q68.75 51.40 69.88 49.90Q71 48.40 71.35 45.80L72.20 45.90Q71.80 49.35 70 51.38Q68.20 53.40 64.05 53.40Q59.90 53.40 57.70 51.75Q55.50 50.10 55.50 45.75ZM80.05 25.65Q80.05 25.65 78.73 25.65Q77.40 25.65 76.28 24.30Q75.15 22.95 75.15 20.95Q75.15 18.95 76.38 17.65Q77.60 16.35 80.10 16.35Q82.60 16.35 83.90 17.53Q85.20 18.70 85.20 20.88Q85.20 23.05 83.95 24.35Q82.70 25.65 80.05 25.65M72.50 29.10L84.75 29.10L84.75 52.00L87.55 52.00L87.55 52.90L72.70 52.90L72.70 52.00L75.45 52.00L75.45 30.00L72.50 30.00L72.50 29.10ZM88.55 29.10L100.60 29.10L100.60 33.70Q102.25 28.60 107.88 28.60Q113.50 28.60 114.70 34Q116.45 28.60 122.05 28.60Q129.40 28.60 129.40 36.95L129.40 52.00L132.20 52.00L132.20 52.90L118.35 52.90L118.35 52.00L120.10 52.00L120.10 35.75Q120.10 31.95 119.45 31.30Q119.15 31.00 118.65 31.00Q117.20 31.00 116.10 32.95Q115.00 34.90 115.00 37.90L115.00 52.00L116.80 52.00L116.80 52.90L103.95 52.90L103.95 52.00L105.70 52.00L105.70 35.75Q105.70 31.95 105.05 31.30Q104.75 31.00 104.25 31.00Q102.85 31.00 101.73 33.13Q100.60 35.25 100.60 38.20L100.60 52.00L102.40 52.00L102.40 52.90L88.55 52.90L88.55 52.00L91.30 52.00L91.30 30.00L88.55 30.00L88.55 29.10ZM144.95 41.15L146.40 41.15L146.40 37.30Q146.40 32.55 145.88 30.93Q145.35 29.30 143.85 29.30Q142.95 29.30 142.23 29.78Q141.50 30.25 141.50 31.08Q141.50 31.90 141.80 32.75L143.05 32.75Q143.45 33.80 143.45 35.28Q143.45 36.75 142.20 37.83Q140.95 38.90 139.05 38.90Q134.75 38.90 134.75 34.75Q134.75 28.60 145.20 28.60Q151.15 28.60 153.43 30.63Q155.70 32.65 155.70 38.05L155.70 48.20Q155.70 50.80 157.15 50.80Q158.85 50.80 159.15 45.65L159.90 45.70Q159.70 50.10 158.25 51.75Q156.80 53.40 153.50 53.40Q147.50 53.40 146.60 49.70Q145.95 51.60 144.65 52.50Q143.35 53.40 140.85 53.40Q133.45 53.40 133.45 47.35Q133.45 43.80 136.28 42.48Q139.10 41.15 144.95 41.15M142.95 47.30Q142.95 49.90 143.23 50.65Q143.50 51.40 144.28 51.40Q145.05 51.40 145.73 50.13Q146.40 48.85 146.40 46.60L146.40 41.95L146.05 41.95Q142.95 41.95 142.95 46.50L142.95 47.30ZM196.85 17.90L196.85 19.00L182.05 51.75L183.75 51.75Q188.25 51.75 191.68 48.88Q195.10 46.00 196.60 40.70L197.50 40.70L196.90 52.90L171.30 52.90L171.30 51.95L186.25 19.00L184.20 19.00Q179.75 19.00 177.45 20.95Q175.15 22.90 172.25 28.95L171.35 28.95L172.10 17.90L196.85 17.90ZM212.00 41.15L213.45 41.15L213.45 37.30Q213.45 32.55 212.93 30.93Q212.40 29.30 210.90 29.30Q210.00 29.30 209.28 29.78Q208.55 30.25 208.55 31.08Q208.55 31.90 208.85 32.75L210.10 32.75Q210.50 33.80 210.50 35.28Q210.50 36.75 209.25 37.83Q208.00 38.90 206.10 38.90Q201.80 38.90 201.80 34.75Q201.80 28.60 212.25 28.60Q218.20 28.60 220.48 30.63Q222.75 32.65 222.75 38.05L222.75 48.20Q222.75 50.80 224.20 50.80Q225.90 50.80 226.20 45.65L226.95 45.70Q226.75 50.10 225.30 51.75Q223.85 53.40 220.55 53.40Q214.55 53.40 213.65 49.70Q213.00 51.60 211.70 52.50Q210.40 53.40 207.90 53.40Q200.50 53.40 200.50 47.35Q200.50 43.80 203.33 42.48Q206.15 41.15 212.00 41.15M210.00 47.30Q210.00 49.90 210.28 50.65Q210.55 51.40 211.33 51.40Q212.10 51.40 212.78 50.13Q213.45 48.85 213.45 46.60L213.45 41.95L213.10 41.95Q210.00 41.95 210.00 46.50L210.00 47.30ZM227.45 15.40L239.50 15.40L239.50 33.70Q240.30 31.40 241.95 30.00Q243.60 28.60 246.95 28.60Q254.70 28.60 254.70 36.95L254.70 52.00L257.50 52.00L257.50 52.90L243.35 52.90L243.35 52.00L245.40 52.00L245.40 35.75Q245.40 32.75 245.00 31.88Q244.60 31.00 243.55 31.00Q241.95 31.00 240.73 33.10Q239.50 35.20 239.50 38.20L239.50 52.00L241.65 52.00L241.65 52.90L227.45 52.90L227.45 52.00L230.20 52.00L230.20 16.30L227.45 16.30L227.45 15.40ZM274.95 30.50Q273.10 30.50 271.70 32.90Q270.30 35.30 270.30 38.60L270.30 52.00L273.85 52.00L273.85 52.90L258.25 52.90L258.25 52.00L261.00 52.00L261.00 30.00L258.25 30.00L258.25 29.10L270.30 29.10L270.30 33.90Q270.95 31.35 272.80 29.98Q274.65 28.60 277.00 28.60Q279.35 28.60 280.83 29.93Q282.30 31.25 282.30 33.68Q282.30 36.10 281.20 37.40Q280.10 38.70 277.83 38.70Q275.55 38.70 274.48 37.20Q273.40 35.70 274.20 33.05L276.00 33.05Q277.25 30.50 274.95 30.50ZM294.25 41.15L295.70 41.15L295.70 37.30Q295.70 32.55 295.18 30.93Q294.65 29.30 293.15 29.30Q292.25 29.30 291.53 29.78Q290.80 30.25 290.80 31.08Q290.80 31.90 291.10 32.75L292.35 32.75Q292.75 33.80 292.75 35.28Q292.75 36.75 291.50 37.83Q290.25 38.90 288.35 38.90Q284.05 38.90 284.05 34.75Q284.05 28.60 294.50 28.60Q300.45 28.60 302.73 30.63Q305.00 32.65 305.00 38.05L305.00 48.20Q305.00 50.80 306.45 50.80Q308.15 50.80 308.45 45.65L309.20 45.70Q309.00 50.10 307.55 51.75Q306.10 53.40 302.80 53.40Q296.80 53.40 295.90 49.70Q295.25 51.60 293.95 52.50Q292.65 53.40 290.15 53.40Q282.75 53.40 282.75 47.35Q282.75 43.80 285.58 42.48Q288.40 41.15 294.25 41.15M292.25 47.30Q292.25 49.90 292.53 50.65Q292.80 51.40 293.58 51.40Q294.35 51.40 295.03 50.13Q295.70 48.85 295.70 46.60L295.70 41.95L295.35 41.95Q292.25 41.95 292.25 46.50L292.25 47.30Z"/></g></g></g></svg>